<?xml version="1.0" encoding="utf-8"?>
<!-- Generator: Adobe Illustrator 26.0.0, SVG Export Plug-In . SVG Version: 6.00 Build 0)  -->
<svg version="1.1"
	 id="svg4730" xmlns:cc="http://creativecommons.org/ns#" xmlns:dc="http://purl.org/dc/elements/1.1/" xmlns:rdf="http://www.w3.org/1999/02/22-rdf-syntax-ns#" xmlns:svg="http://www.w3.org/2000/svg"
	 xmlns="http://www.w3.org/2000/svg" xmlns:xlink="http://www.w3.org/1999/xlink" x="0px" y="0px" viewBox="0 0 300 300"
	 style="enable-background:new 0 0 300 300;" xml:space="preserve">
<path d="M150,3.41C69.04,3.41,3.4,69.04,3.4,150S69.04,296.6,150,296.6S296.6,230.96,296.6,150S230.96,3.41,150,3.41z
	 M227.51,218.96c0,4.72-3.83,8.56-8.56,8.56h-39.5v-60.03h20.15l3.02-23.4h-23.17v-14.94c0-6.77,1.88-11.39,11.59-11.39l12.39-0.01
	V96.83c-2.14-0.28-9.5-0.92-18.05-0.92c-17.86,0-30.09,10.9-30.09,30.93v17.25h-20.2v23.4h20.2v60.03H81.05
	c-4.73,0-8.56-3.83-8.56-8.56V81.05c0-4.73,3.83-8.56,8.56-8.56h137.91c4.72,0,8.56,3.83,8.56,8.56V218.96z"/>
</svg>
