<?xml version="1.0" encoding="utf-8"?>
<!-- Generator: Adobe Illustrator 26.0.0, SVG Export Plug-In . SVG Version: 6.00 Build 0)  -->
<svg version="1.1" id="Layer_1" xmlns="http://www.w3.org/2000/svg" xmlns:xlink="http://www.w3.org/1999/xlink" x="0px" y="0px"
	 viewBox="0 0 299.91 299.91" style="enable-background:new 0 0 299.91 299.91;" xml:space="preserve">
<g>
	<path d="M150.57,4.98C69.76,4.98,4,70.75,4,151.56c0,80.84,65.76,146.61,146.58,146.61c80.84,0,146.61-65.76,146.61-146.61
		C297.19,70.75,231.42,4.98,150.57,4.98L150.57,4.98z M216,118.03c0.05,1.44,0.08,2.91,0.08,4.38c0,44.57-33.93,95.97-96,95.97
		c-19.06,0-36.79-5.56-51.73-15.16c2.65,0.32,5.33,0.49,8.05,0.49c15.82,0,30.36-5.39,41.92-14.44
		c-14.76-0.29-27.21-10.03-31.51-23.44c2.04,0.41,4.15,0.61,6.34,0.61c3.06,0,6.05-0.4,8.88-1.18
		c-15.43-3.09-27.07-16.72-27.07-33.07c0-0.15,0-0.29,0.03-0.44c4.52,2.54,9.75,4.04,15.29,4.21c-9.06-6.02-15.03-16.37-15.03-28.08
		c0-6.17,1.68-11.96,4.56-16.95c16.63,20.42,41.52,33.85,69.54,35.26c-0.58-2.48-0.86-5.04-0.86-7.7
		c0-18.62,15.11-33.73,33.74-33.73c9.71,0,18.47,4.1,24.62,10.64c7.7-1.5,14.94-4.3,21.46-8.19c-2.54,7.9-7.88,14.5-14.85,18.68
		c6.83-0.8,13.35-2.62,19.37-5.3C228.31,107.34,222.57,113.27,216,118.03L216,118.03z M216,118.03"/>
</g>
</svg>
